<?xml version="1.0" encoding="utf-8"?>
<svg version="1.1" id="webserver" xmlns="http://www.w3.org/2000/svg" 
     xmlns:xlink="http://www.w3.org/1999/xlink" viewBox="0 0 250 220" xml:space="preserve">
  <defs>
    <!-- Drop shadow filter for a subtle 3D effect -->
    <filter id="dropshadow" x="-20%" y="-20%" width="140%" height="140%">
      <feGaussianBlur in="SourceAlpha" stdDeviation="3"/>
      <feOffset dx="2" dy="2" result="offsetblur"/>
      <feMerge>
        <feMergeNode in="offsetblur"/>
        <feMergeNode in="SourceGraphic"/>
      </feMerge>
    </filter>
    <!-- Gradient for the server body -->
    <linearGradient id="bodyGradient" x1="0" y1="0" x2="0" y2="1">
      <stop offset="0%" stop-color="#4A90E2"/>
      <stop offset="100%" stop-color="#0A74DA"/>
    </linearGradient>
    <!-- Gradient for the panels -->
    <linearGradient id="panelGradient" x1="0" y1="0" x2="1" y2="0">
      <stop offset="0%" stop-color="#6BB9F0"/>
      <stop offset="100%" stop-color="#2980B9"/>
    </linearGradient>
    <!-- Gradient for the lock -->
    <linearGradient id="lockGradient" x1="0" y1="0" x2="0" y2="1">
      <stop offset="0%" stop-color="#cce4f7"/>
      <stop offset="100%" stop-color="#7fb3d5"/>
    </linearGradient>
    <!-- Path for the HTTP/SSL banner -->
    <path id="httpBanner" d="M20,5 Q125,-10 230,5" />
  </defs>

  <!-- Curved HTTP/SSL Banner -->
  <text fill="#ffffff" font-family="Verdana" font-size="16" font-weight="bold">
    <textPath xlink:href="#httpBanner" text-anchor="middle">
      HTTP/SSL Secure Connection
    </textPath>
  </text>

  <!-- Main server chassis -->
  <rect x="10" y="10" width="230" height="180" rx="15" ry="15" fill="url(#bodyGradient)" filter="url(#dropshadow)"/>

  <!-- Three server panels -->
  <rect x="30" y="30" width="190" height="30" rx="5" ry="5" fill="url(#panelGradient)"/>
  <rect x="30" y="80" width="190" height="30" rx="5" ry="5" fill="url(#panelGradient)"/>
  <rect x="30" y="130" width="190" height="30" rx="5" ry="5" fill="url(#panelGradient)"/>

  <!-- Indicator lights on each panel -->
  <circle cx="50"  cy="45"  r="3" fill="#ffffff"/>
  <circle cx="70"  cy="45"  r="3" fill="#ffffff"/>
  <circle cx="90"  cy="45"  r="3" fill="#ffffff"/>
  
  <circle cx="50"  cy="95"  r="3" fill="#ffffff"/>
  <circle cx="70"  cy="95"  r="3" fill="#ffffff"/>
  <circle cx="90"  cy="95"  r="3" fill="#ffffff"/>
  
  <circle cx="50"  cy="145" r="3" fill="#ffffff"/>
  <circle cx="70"  cy="145" r="3" fill="#ffffff"/>
  <circle cx="90"  cy="145" r="3" fill="#ffffff"/>

  <!-- Lock icon to represent SSL security -->
  <g id="lock" transform="translate(190,40)" filter="url(#dropshadow)">
    <!-- Lock body -->
    <rect x="0" y="10" width="30" height="30" rx="3" ry="3" fill="url(#lockGradient)"/>
    <!-- Lock shackle -->
    <path d="M7,10 V5 A8,8 0 0 1 23,5 V10" stroke="#7fb3d5" stroke-width="2" fill="none"/>
  </g>

  <!-- Server Label -->
  <text x="125" y="215" text-anchor="middle" font-family="Verdana" font-size="16" fill="#ffffff">
    Web Server
  </text>
</svg>
